[h264 @ 0x5573e75dc0c0] Reinit context to 640x352, pix_fmt: yuv420p
Input #0, mov,mp4,m4a,3gp,3g2,mj2, from '/var/www/html/project/media/video/original/video6021411245523995507.mp4':
  Metadata:
    major_brand     : isom
    minor_version   : 512
    compatible_brands: isomiso2avc1mp41
    creation_time   : 2022-01-26T21:26:30.000000Z
  Duration: 00:00:17.40, start: 0.000000, bitrate: 6103 kb/s
    Stream #0:0(eng): Video: h264 (Baseline), 1 reference frame (avc1 / 0x31637661), yuv420p(tv, bt470bg/bt470bg/smpte170m, left), 640x352, 6000 kb/s, 30 fps, 30 tbr, 90k tbn, 180k tbc (default)
    Metadata:
      creation_time   : 2022-01-26T21:26:30.000000Z
      handler_name    : VideoHandle
    Stream #0:1(eng): Audio: aac (LC) (mp4a / 0x6134706D), 44100 Hz, stereo, fltp, 96 kb/s (default)
    Metadata:
      creation_time   : 2022-01-26T21:26:30.000000Z
      handler_name    : SoundHandle
Input #1, png_pipe, from '/var/www/html/project/static/images/templates/logo.png':
  Duration: N/A, bitrate: N/A
    Stream #1:0: Video: png, 1 reference frame, rgba(pc), 1920x1080 [SAR 2835:2835 DAR 16:9], 25 tbr, 25 tbn, 25 tbc
[h264 @ 0x5573e762e280] Reinit context to 1280x720, pix_fmt: yuv420p
Input #2, mov,mp4,m4a,3gp,3g2,mj2, from '/var/www/html/project/static/images/templates/Codino.mp4':
  Metadata:
    major_brand     : mp42
    minor_version   : 1
    compatible_brands: isommp41mp42
    creation_time   : 2021-07-11T07:02:58.000000Z
  Duration: 00:00:02.00, start: 0.000000, bitrate: 1007 kb/s
    Stream #2:0(ita): Audio: aac (LC) (mp4a / 0x6134706D), 44100 Hz, stereo, fltp, 102 kb/s (default)
    Metadata:
      creation_time   : 2021-07-11T07:02:58.000000Z
      handler_name    : Core Media Audio
    Stream #2:1(und): Video: h264 (High), 1 reference frame (avc1 / 0x31637661), yuv420p(tv, bt709, progressive, left), 1280x720 [SAR 1:1 DAR 16:9], 813 kb/s, 25 fps, 25 tbr, 25k tbn, 50k tbc (default)
    Metadata:
      creation_time   : 2021-07-11T07:02:58.000000Z
      handler_name    : Core Media Video
[Parsed_scale_0 @ 0x5573e762eec0] w:1280 h:720 flags:'bilinear' interl:0
[Parsed_scale_2 @ 0x5573e763cc80] w:1280 h:720 flags:'bilinear' interl:0
[Parsed_scale_4 @ 0x5573e761bac0] w:1280 h:720 flags:'bilinear' interl:0
Stream mapping:
  Stream #0:0 (h264) -> scale
  Stream #0:1 (aac) -> concat:in0:a0
  Stream #1:0 (png) -> scale
  Stream #2:0 (aac) -> concat:in1:a0
  Stream #2:1 (h264) -> scale
  concat:out:v0 -> Stream #0:0 (libx264)
  concat:out:a0 -> Stream #0:1 (aac)
Press [q] to stop, [?] for help
[h264 @ 0x5573e763e480] Reinit context to 640x352, pix_fmt: yuv420p
[h264 @ 0x5573e7a7e3c0] Reinit context to 1280x720, pix_fmt: yuv420p
[Parsed_scale_0 @ 0x5573e84a80c0] w:1280 h:720 flags:'bilinear' interl:0
[Parsed_scale_2 @ 0x5573e84accc0] w:1280 h:720 flags:'bilinear' interl:0
[Parsed_scale_4 @ 0x5573e84b1b80] w:1280 h:720 flags:'bilinear' interl:0
[graph 0 input from stream 0:0 @ 0x5573e84b62c0] w:640 h:352 pixfmt:yuv420p tb:1/90000 fr:30/1 sar:0/1 sws_param:flags=2
[graph 0 input from stream 1:0 @ 0x5573e84b7340] w:1920 h:1080 pixfmt:rgba tb:1/25 fr:25/1 sar:2835/2835 sws_param:flags=2
[graph 0 input from stream 2:1 @ 0x5573e84b83c0] w:1280 h:720 pixfmt:yuv420p tb:1/25000 fr:25/1 sar:1/1 sws_param:flags=2
[graph_0_in_0_1 @ 0x5573e84b9380] tb:1/44100 samplefmt:fltp samplerate:44100 chlayout:0x3
[graph_0_in_2_0 @ 0x5573e84ba4c0] tb:1/44100 samplefmt:fltp samplerate:44100 chlayout:0x3
[Parsed_scale_0 @ 0x5573e84a80c0] w:640 h:352 fmt:yuv420p sar:0/1 -> w:1280 h:720 fmt:yuv420p sar:0/1 flags:0x2
[Parsed_setsar_1 @ 0x5573e84b0100] w:1280 h:720 sar:0/1 dar:16/9 -> sar:1/1 dar:16/9
[Parsed_scale_2 @ 0x5573e84accc0] w:1920 h:1080 fmt:rgba sar:2835/2835 -> w:1280 h:720 fmt:yuva420p sar:1/1 flags:0x2
[Parsed_setsar_3 @ 0x5573e84b0fc0] w:1280 h:720 sar:1/1 dar:16/9 -> sar:1/1 dar:16/9
[Parsed_overlay_6 @ 0x5573e84b3200] main w:1280 h:720 fmt:yuv420p overlay w:1280 h:720 fmt:yuva420p
[Parsed_overlay_6 @ 0x5573e84b3200] [framesync @ 0x5573e84b3328] Selected 1/90000 time base
[Parsed_overlay_6 @ 0x5573e84b3200] [framesync @ 0x5573e84b3328] Sync level 2
[Parsed_scale_4 @ 0x5573e84b1b80] w:1280 h:720 fmt:yuv420p sar:1/1 -> w:1280 h:720 fmt:yuv420p sar:1/1 flags:0x2
[Parsed_setsar_5 @ 0x5573e84b2640] w:1280 h:720 sar:1/1 dar:16/9 -> sar:1/1 dar:16/9
[libx264 @ 0x5573e7653040] using SAR=1/1
[libx264 @ 0x5573e7653040] using cpu capabilities: MMX2 SSE2Fast SSSE3 SSE4.2 AVX FMA3 BMI2 AVX2
[libx264 @ 0x5573e7653040] profile High, level 3.1
[libx264 @ 0x5573e7653040] 264 - core 155 r2917 0a84d98 - H.264/MPEG-4 AVC codec - Copyleft 2003-2018 - http://www.videolan.org/x264.html - options: cabac=1 ref=1 deblock=1:0:0 analyse=0x3:0x113 me=hex subme=2 psy=1 psy_rd=1.00:0.00 mixed_ref=0 me_range=16 chroma_me=1 trellis=0 8x8dct=1 cqm=0 deadzone=21,11 fast_pskip=1 chroma_qp_offset=0 threads=22 lookahead_threads=5 sliced_threads=0 nr=0 decimate=1 interlaced=0 bluray_compat=0 constrained_intra=0 bframes=3 b_pyramid=2 b_adapt=1 b_bias=0 direct=1 weightb=1 open_gop=0 weightp=1 keyint=250 keyint_min=25 scenecut=40 intra_refresh=0 rc_lookahead=10 rc=crf mbtree=1 crf=18.0 qcomp=0.60 qpmin=0 qpmax=69 qpstep=4 ip_ratio=1.40 aq=1:1.00
Output #0, mp4, to '/var/www/html/project/media/video/watermarks/video6021411245523995507.mp4':
  Metadata:
    major_brand     : isom
    minor_version   : 512
    compatible_brands: isomiso2avc1mp41
    encoder         : Lavf58.29.100
    Stream #0:0: Video: h264 (libx264), 1 reference frame (avc1 / 0x31637661), yuv420p(progressive), 1280x720 [SAR 1:1 DAR 16:9], q=-1--1, 30 fps, 15360 tbn, 30 tbc (default)
    Metadata:
      encoder         : Lavc58.54.100 libx264
    Side data:
      cpb: bitrate max/min/avg: 0/0/0 buffer size: 0 vbv_delay: -1
    Stream #0:1: Audio: aac (LC) (mp4a / 0x6134706D), 44100 Hz, stereo, fltp, delay 1024, 128 kb/s (default)
    Metadata:
      encoder         : Lavc58.54.100 aac
[Parsed_overlay_6 @ 0x5573e84b3200] [framesync @ 0x5573e84b3328] Sync level 0
[Parsed_concat_7 @ 0x5573e84b4340] EOF on in0:v0, 1 streams left in segment.
[Parsed_concat_7 @ 0x5573e84b4340] EOF on in0:a0, 0 streams left in segment.
[Parsed_concat_7 @ 0x5573e84b4340] Segment finished at pts=17400000
[Parsed_concat_7 @ 0x5573e84b4340] EOF on in1:a0, 1 streams left in segment.
[Parsed_concat_7 @ 0x5573e84b4340] EOF on in1:v0, 0 streams left in segment.
[Parsed_concat_7 @ 0x5573e84b4340] Segment finished at pts=19418685
No more output streams to write to, finishing.
frame=  572 fps=192 q=-1.0 Lsize=    7467kB time=00:00:19.43 bitrate=3147.5kbits/s speed=6.52x    
[AVIOContext @ 0x5573e75da440] Statistics: 0 seeks, 6 writeouts
video:7142kB audio:303kB subtitle:0kB other streams:0kB global headers:0kB muxing overhead: 0.291397%
Input file #0 (/var/www/html/project/media/video/original/video6021411245523995507.mp4):
  Input stream #0:0 (video): 522 packets read (13050934 bytes); 522 frames decoded; 
  Input stream #0:1 (audio): 745 packets read (207902 bytes); 745 frames decoded (762880 samples); 
  Total: 1267 packets (13258836 bytes) demuxed
Input file #1 (/var/www/html/project/static/images/templates/logo.png):
  Input stream #1:0 (video): 1 packets read (111578 bytes); 1 frames decoded; 
  Total: 1 packets (111578 bytes) demuxed
Input file #2 (/var/www/html/project/static/images/templates/Codino.mp4):
  Input stream #2:0 (audio): 89 packets read (26579 bytes); 87 frames decoded (89024 samples); 
  Input stream #2:1 (video): 50 packets read (203365 bytes); 50 frames decoded; 
  Total: 139 packets (229944 bytes) demuxed
Output file #0 (/var/www/html/project/media/video/watermarks/video6021411245523995507.mp4):
  Output stream #0:0 (video): 572 frames encoded; 572 packets muxed (7313808 bytes); 
  Output stream #0:1 (audio): 837 frames encoded (856364 samples); 838 packets muxed (310489 bytes); 
  Total: 1410 packets (7624297 bytes) muxed
[AVIOContext @ 0x5573e761de40] Statistics: 2 seeks, 33 writeouts
[libx264 @ 0x5573e7653040] frame I:4     Avg QP:11.84  size: 33879
[libx264 @ 0x5573e7653040] frame P:161   Avg QP:16.64  size: 20414
[libx264 @ 0x5573e7653040] frame B:407   Avg QP:18.72  size:  9560
[libx264 @ 0x5573e7653040] consecutive B-frames:  3.7%  3.5%  2.6% 90.2%
[libx264 @ 0x5573e7653040] mb I  I16..4: 41.5% 37.6% 20.9%
[libx264 @ 0x5573e7653040] mb P  I16..4: 17.6% 33.3%  2.6%  P16..4: 16.3%  9.4%  4.5%  0.0%  0.0%    skip:16.3%
[libx264 @ 0x5573e7653040] mb B  I16..4:  5.5%  9.9%  0.2%  B16..8: 28.0%  9.5%  0.6%  direct:20.4%  skip:25.9%  L0:45.8% L1:45.6% BI: 8.6%
[libx264 @ 0x5573e7653040] 8x8 transform intra:62.2% inter:40.7%
[libx264 @ 0x5573e7653040] coded y,uvDC,uvAC intra: 45.6% 65.7% 9.6% inter: 9.8% 49.9% 0.4%
[libx264 @ 0x5573e7653040] i16 v,h,dc,p: 46% 18% 21% 15%
[libx264 @ 0x5573e7653040] i8 v,h,dc,ddl,ddr,vr,hd,vl,hu: 27% 23% 23%  4%  5%  5%  5%  4%  4%
[libx264 @ 0x5573e7653040] i4 v,h,dc,ddl,ddr,vr,hd,vl,hu: 31% 23% 16%  5%  6%  5%  6%  4%  4%
[libx264 @ 0x5573e7653040] i8c dc,h,v,p: 42% 23% 23% 11%
[libx264 @ 0x5573e7653040] Weighted P-Frames: Y:11.2% UV:6.8%
[libx264 @ 0x5573e7653040] kb/s:3015.72
[aac @ 0x5573e7652140] Qavg: 3027.912
[AVIOContext @ 0x5573e75e33c0] Statistics: 13308341 bytes read, 2 seeks
[AVIOContext @ 0x5573e75ed840] Statistics: 111578 bytes read, 0 seeks
[AVIOContext @ 0x5573e76dc680] Statistics: 1530915 bytes read, 42 seeks
